<?xml version="1.0" encoding="utf-8"?><svg viewBox="0 0 512.01 512.01" xmlns="http://www.w3.org/2000/svg" xmlns:xlink="http://www.w3.org/1999/xlink"><style>:root>svg{display:none}:root>svg:target{display:block}</style><svg fill="none" viewBox="0 0 15 20" id="address" xmlns="http://www.w3.org/2000/svg"><path d="M7.578 0a7.138 7.138 0 00-2.93.625 7.57 7.57 0 00-2.402 1.64 7.953 7.953 0 00-1.64 2.422A7.334 7.334 0 000 7.617C0 8.19.078 8.79.234 9.414c.157.625.339 1.204.547 1.738a12 12 0 00.899 1.778c.39.65.735 1.204 1.035 1.66.312.443.729.99 1.25 1.64.52.639.924 1.127 1.21 1.465.287.339.69.808 1.212 1.407.156.182.273.312.351.39a.669.669 0 00.137.137c.065.065.182.143.352.234.169.091.332.137.488.137h.058c.365 0 .69-.17.977-.508C12.917 14.7 15 10.742 15 7.617c0-2.174-.664-3.978-1.992-5.41C11.628.736 9.818 0 7.578 0zm.234 18.652a.221.221 0 01-.078.078l-.078-.078-.332-.37c-.495-.574-.879-1.016-1.152-1.329a103.7 103.7 0 01-1.152-1.406 25.881 25.881 0 01-1.172-1.543c-.287-.43-.619-.944-.996-1.543a13.091 13.091 0 01-.88-1.64 13.249 13.249 0 01-.507-1.583 6.695 6.695 0 01-.215-1.62c0-1.134.286-2.188.86-3.165A6.418 6.418 0 014.413 2.11a6.145 6.145 0 013.164-.859c1.029 0 1.947.182 2.754.547.807.351 1.452.833 1.934 1.445a6.45 6.45 0 011.113 2.031c.247.743.371 1.524.371 2.344 0 2.813-1.98 6.491-5.938 11.035zM7.52 3.77c-.404 0-.801.065-1.192.195a3.89 3.89 0 00-1.836 1.348 3.752 3.752 0 00-.547 1.035A3.931 3.931 0 003.77 7.52c0 1.041.364 1.927 1.093 2.656.742.729 1.628 1.094 2.657 1.094 1.041 0 1.927-.365 2.656-1.094.729-.73 1.094-1.615 1.094-2.656 0-.508-.098-.99-.293-1.446a3.492 3.492 0 00-.801-1.191 3.708 3.708 0 00-1.211-.801A3.436 3.436 0 007.52 3.77zm0 6.25c-.69 0-1.283-.248-1.778-.743A2.425 2.425 0 015 7.5c0-.69.24-1.276.723-1.758A2.425 2.425 0 017.5 5c.69 0 1.276.247 1.758.742C9.753 6.224 10 6.81 10 7.5c0 .86-.345 1.543-1.035 2.05-.43.313-.912.47-1.445.47z" fill="#C78E66"/></svg><svg fill="none" viewBox="0 0 18 10" id="arrow-down" xmlns="http://www.w3.org/2000/svg"><path d="M0 .638C0 .468.059.316.176.182A.566.566 0 01.598 0c.164 0 .305.06.423.182l8.04 8.324 7.9-8.196a.825.825 0 01.282-.164.623.623 0 01.3 0c.105.036.199.09.281.164A.607.607 0 0118 .747a.63.63 0 01-.176.455l-8.34 8.616a.476.476 0 01-.211.127.49.49 0 01-.229.055.456.456 0 01-.211-.055.492.492 0 01-.194-.127L.176 1.075A.5.5 0 01.053.856.499.499 0 010 .638z" fill="#C78E66"/></svg><svg fill="none" viewBox="0 0 10 18" id="arrow-right" xmlns="http://www.w3.org/2000/svg"><path d="M.638 18a.671.671 0 01-.456-.176.566.566 0 01-.182-.422c0-.165.06-.305.182-.422l8.324-8.042-8.196-7.9A.825.825 0 01.146.757a.623.623 0 010-.3A.825.825 0 01.31.176.607.607 0 01.747 0a.63.63 0 01.455.176l8.616 8.34c.06.059.103.13.127.211a.49.49 0 01.055.229c0 .07-.018.14-.055.211a.492.492 0 01-.127.194l-8.743 8.463a.5.5 0 01-.219.123.499.499 0 01-.218.053z" fill="#C78E66"/></svg><svg viewBox="0 0 32 32" id="arrow-up" xmlns="http://www.w3.org/2000/svg"><path fill="none" stroke="#fff" stroke-width="2" stroke-miterlimit="10" d="M16 6v22M7.5 14L16 5.5l8.5 8.5"/></svg><svg fill="none" viewBox="0 0 20 20" id="benefits-01" xmlns="http://www.w3.org/2000/svg"><path d="M11.89 20c-1.403 0-2.501-.013-3.294-.04-.78-.025-1.384-.084-1.813-.175-.415-.078-.682-.15-.799-.215a5.376 5.376 0 01-.526-.332c-.195-.156-.552-.286-1.072-.39-.507-.091-1.358-.176-2.554-.254a.65.65 0 01-.487-.235 8.136 8.136 0 01-.156-.254 8.62 8.62 0 01-.331-.644 12.67 12.67 0 01-.41-1.016 9.878 9.878 0 01-.312-1.367A10.1 10.1 0 010 13.418c0-1.901.318-3.36.955-4.375a.62.62 0 01.546-.293c1.092 0 2.287-.664 3.587-1.992C6.4 5.43 7.53 3.626 8.479 1.348c.026-.04.065-.13.117-.274.065-.143.104-.234.117-.273.013-.04.046-.11.098-.215.065-.117.117-.189.156-.215.052-.039.117-.091.195-.156a.497.497 0 01.234-.117c.09-.026.194-.046.311-.059.13-.026.273-.039.43-.039.233 0 .474.052.72.156.247.104.475.248.683.43.208.17.377.365.507.586.246.404.39.983.428 1.738.04.755.013 1.458-.078 2.11a16.548 16.548 0 01-.331 1.875c2.313-.013 3.886-.02 4.717-.02.767 0 1.384.208 1.852.625.48.417.728.964.74 1.64.014.574-.045 1.01-.175 1.31.221.22.403.455.546.702.156.235.24.502.254.801.013.612-.286 1.237-.897 1.875.013.026.039.091.078.195.039.092.065.17.078.235.026.065.045.15.058.254.013.09.02.182.02.273-.026.716-.442 1.354-1.248 1.914.065.43.059.814-.02 1.153C17.759 19.284 15.7 20 11.892 20zm-9.726-2.676c2.13.17 3.482.469 4.054.899.208.156.39.26.546.312.156.052.624.104 1.403.156.78.04 2.021.059 3.724.059.532 0 1.013-.013 1.442-.04.442-.025.949-.07 1.52-.136.572-.065 1.034-.182 1.385-.351.35-.17.558-.384.623-.645.052-.273-.071-.566-.37-.879a.588.588 0 010-.469.6.6 0 01.312-.351h.02l.233-.098c.091-.039.221-.11.39-.215.182-.104.331-.228.448-.37a.898.898 0 00.195-.45.433.433 0 00-.02-.137.433.433 0 00-.019-.136.21.21 0 00-.039-.118.76.76 0 00-.039-.097.305.305 0 00-.058-.078.226.226 0 00-.04-.059.228.228 0 00-.038-.059l-.04-.039v-.02a.461.461 0 01-.097-.214.71.71 0 010-.234.609.609 0 01.078-.215.854.854 0 01.176-.195 1.92 1.92 0 00.253-.157c.091-.078.202-.215.332-.41a.988.988 0 00.214-.586c-.013-.325-.26-.631-.74-.918a.855.855 0 01-.196-.176.9.9 0 01-.117-.253.643.643 0 01-.019-.157c.013-.065.026-.123.039-.175a.765.765 0 01.097-.176l.04-.04.077-.156c.04-.078.072-.15.098-.214.026-.079.045-.17.058-.274.026-.104.04-.202.04-.293a1.052 1.052 0 00-.196-.586.746.746 0 00-.428-.312 1.85 1.85 0 00-.41-.117 2.509 2.509 0 00-.312-.02h-4.561l-1.053.02a.64.64 0 01-.156-.02.76.76 0 01-.155-.059l-.117-.078a.519.519 0 01-.098-.136c-.117-.17-.136-.365-.058-.586.207-.6.37-1.257.487-1.973.13-.716.188-1.4.175-2.05 0-.652-.09-1.127-.273-1.427a2.474 2.474 0 00-.078-.136 2.436 2.436 0 01-.078-.137.335.335 0 00-.097-.098.245.245 0 00-.136-.097.458.458 0 00-.176-.059.862.862 0 00-.273-.039.21.21 0 00-.117.04 1.066 1.066 0 00-.175.175c-.078.091-.15.215-.215.37-1 2.423-2.209 4.356-3.625 5.802C4.587 9.069 3.216 9.85 1.89 9.98a7.822 7.822 0 00-.273.704c-.078.234-.163.605-.254 1.113a10.687 10.687 0 00-.116 1.621c0 .586.058 1.172.175 1.758.117.573.234 1.028.35 1.367.13.326.26.586.39.781z" fill="#C78E66"/></svg><svg fill="none" viewBox="0 0 20 19" id="benefits-02" xmlns="http://www.w3.org/2000/svg"><path d="M8.3 12.48c1.498 0 2.852-.26 4.063-.78 1.211-.535 2.162-1.29 2.852-2.266.703-.977 1.048-2.09 1.035-3.34 0-.417-.059-.827-.176-1.23a4.658 4.658 0 00-.469-1.153 5.052 5.052 0 00-.742-1.035 6.452 6.452 0 00-.976-.899 7.118 7.118 0 00-1.192-.742 7.882 7.882 0 00-1.367-.547A9.29 9.29 0 009.805.137 9.732 9.732 0 008.165 0C6.68 0 5.312.273 4.062.82c-1.25.534-2.24 1.27-2.97 2.207C.366 3.965 0 4.987 0 6.094 0 7.2.273 8.255.82 9.258a5.416 5.416 0 002.364 2.285v.039c0 .573-.358 1.471-1.075 2.695h.02a.388.388 0 00-.04.176v.117a.76.76 0 01.04.098l.039.078.078.078.078.04a.76.76 0 01.098.038c.039.013.078.02.117.02h.059l.058-.02h.02c.364-.052.788-.188 1.27-.41.494-.234.943-.488 1.347-.762.417-.273.775-.527 1.074-.761.313-.248.515-.43.606-.547l.254.039c.078.013.15.02.214.02h.86zm-1.835-1.347l-.8.664c-.105.13-.333.338-.685.625-.351.273-.69.508-1.015.703.13-.352.228-.658.293-.918.065-.273.104-.45.117-.527v-.137l.059-.762-.684-.351a4.285 4.285 0 01-1.875-1.817 5.425 5.425 0 01-.625-2.52c0-.885.306-1.698.918-2.44.625-.743 1.465-1.329 2.52-1.758 1.067-.43 2.226-.645 3.476-.645s2.396.215 3.438.645c1.054.43 1.881 1.015 2.48 1.757.612.743.918 1.556.918 2.442 0 .729-.17 1.419-.508 2.07a5.075 5.075 0 01-1.387 1.64c-.585.443-1.295.795-2.128 1.055-.82.26-1.7.391-2.637.391a7.378 7.378 0 01-1.192-.059l-.683-.058zm13.535 0c0-1.732-.768-3.047-2.305-3.945-.039.377-.143.826-.312 1.347.52.365.879.749 1.074 1.152.195.391.293.873.293 1.446 0 .338-.04.657-.117.957-.078.286-.202.56-.371.82-.17.248-.39.482-.664.703-.26.209-.573.41-.938.606l-.605.293c.039 1.067.09 1.738.156 2.011a9.265 9.265 0 01-.645-.507 5.368 5.368 0 01-.468-.45c-.118-.13-.222-.247-.313-.351a3.117 3.117 0 01-.176-.254l-.039-.078-.664.098a4.711 4.711 0 01-.351.039h-.606c-1.627 0-2.969-.41-4.023-1.23H7.148l-.02.019c.248.3.528.579.84.84a8.13 8.13 0 001.016.683c.365.195.756.365 1.172.508.417.143.86.254 1.328.332.47.065.957.098 1.465.098h.371c.274 0 .528-.014.762-.04.286.326.775.75 1.465 1.27.69.52 1.328.833 1.914.938H17.578a.398.398 0 00.41-.41.346.346 0 00-.039-.157 2.753 2.753 0 01-.215-.469 7.92 7.92 0 01-.215-.664 11.672 11.672 0 01-.175-.722 4.679 4.679 0 01-.059-.684v-.039c1.81-.938 2.715-2.324 2.715-4.16z" fill="#C78E66"/></svg><svg fill="none" viewBox="0 0 16 21" id="benefits-03" xmlns="http://www.w3.org/2000/svg"><path d="M7.923 20.438c-2.308 0-4.205-.731-5.692-2.192C.744 16.785 0 14.926 0 12.668c0-.456.051-.939.154-1.448.102-.522.218-.972.346-1.35.128-.378.27-.757.423-1.135.167-.391.289-.659.365-.802.077-.157.141-.274.193-.353.128-.248.327-.352.596-.313a.519.519 0 01.327.157.494.494 0 01.192.293c.244.953.539 1.71.885 2.27.333.535.692.933 1.077 1.194-.372-1.605-.417-3.157-.135-4.657.167-.9.442-1.723.827-2.466.397-.757.795-1.337 1.192-1.742A7.901 7.901 0 017.731 1.22c.474-.313.807-.509 1-.587.205-.078.372-.137.5-.176a.615.615 0 01.307 0 .539.539 0 01.289.137.583.583 0 01.173.587c-.013.105-.032.242-.058.411-.025.157-.051.49-.077.998-.025.496-.025.985 0 1.468.039.483.122 1.044.25 1.683.141.64.334 1.233.577 1.78.064.118.135.255.212.412.077.143.166.3.27.47.05-.483.134-.92.25-1.312.281-1.03.826-1.78 1.634-2.25a.839.839 0 01.153-.079.522.522 0 01.308-.058.553.553 0 01.308.137c.09.065.154.156.192.274a.495.495 0 01.039.332c0 .04-.007.092-.02.157 0 .065.007.196.02.391.012.196.038.398.077.607.05.209.134.47.25.783.128.313.288.626.48.939.436.744.731 1.422.885 2.035.167.6.25 1.37.25 2.31a8.37 8.37 0 01-.385 2.543 7.126 7.126 0 01-1.115 2.153 7.673 7.673 0 01-1.711 1.644 7.699 7.699 0 01-2.231 1.057 9.193 9.193 0 01-2.635.372zm-6-10.862c-.461 1.175-.692 2.199-.692 3.073 0 1.905.628 3.47 1.884 4.697 1.257 1.226 2.86 1.84 4.808 1.84 1.987 0 3.622-.614 4.904-1.84 1.295-1.227 1.942-2.792 1.942-4.697 0-.548-.032-1.011-.096-1.39a4.297 4.297 0 00-.288-1.095 7.71 7.71 0 00-.577-1.194c-.449-.757-.744-1.514-.885-2.27-.14.222-.25.47-.327.743-.102.392-.18.842-.23 1.35-.052.496-.077.855-.077 1.077.012.222.025.378.038.47a.698.698 0 01-.116.391.552.552 0 01-.307.254l-.193.04a.507.507 0 01-.192-.04.675.675 0 01-.308-.235c-.769-1.108-1.314-2.009-1.634-2.7-.756-1.67-1.051-3.66-.885-5.969a6.467 6.467 0 00-.846.627 8.26 8.26 0 00-.865.9c-.308.365-.584.822-.827 1.37a8.434 8.434 0 00-.52 1.78A8.896 8.896 0 005.5 8.344c0 .548.026 1.03.077 1.448.051.404.122.802.211 1.193.09.379.154.646.193.803.051.156.09.26.115.313.026.052.039.11.039.176a.654.654 0 01-.02.157.352.352 0 01-.038.156 1.032 1.032 0 01-.096.157.585.585 0 01-.596.195 5.606 5.606 0 01-.25-.058 17.83 17.83 0 01-.5-.235 5.608 5.608 0 01-.712-.411 6.873 6.873 0 01-.75-.646c-.27-.287-.513-.6-.73-.94a5.49 5.49 0 01-.27-.488c-.09-.196-.173-.392-.25-.588z" fill="#C78E66"/></svg><svg fill="none" viewBox="0 0 20 21" id="benefits-04" xmlns="http://www.w3.org/2000/svg"><path d="M18.75.438H1.25C.911.438.618.56.371.807.124 1.057 0 1.35 0 1.689v17.5c0 .338.124.631.371.878.247.248.54.372.879.372h17.5c.338 0 .631-.124.879-.372.247-.247.371-.54.371-.878v-17.5c0-.222-.059-.43-.176-.625a1.068 1.068 0 00-.449-.45 1.195 1.195 0 00-.625-.175zm0 18.75H1.25v-17.5h17.5v17.5zM4.375 7.313h1.25v1.25c0 .182.059.332.176.449.13.117.28.175.449.175.17 0 .313-.058.43-.175a.577.577 0 00.195-.45v-1.25h1.25c.17 0 .313-.058.43-.175a.556.556 0 00.195-.43.577.577 0 00-.195-.45.556.556 0 00-.43-.194h-1.25v-1.25a.556.556 0 00-.195-.43.556.556 0 00-.43-.196.617.617 0 00-.45.196.584.584 0 00-.175.43v1.25h-1.25a.617.617 0 00-.45.195.608.608 0 00-.175.449c0 .17.059.313.176.43.13.117.28.176.449.176zm4.277 5.117a.556.556 0 00-.195-.43.577.577 0 00-.45-.195.584.584 0 00-.429.175L6.25 13.31 4.922 11.98a.608.608 0 00-.45-.175.618.618 0 00-.449.195.584.584 0 00-.175.43c0 .169.065.312.195.43l1.328 1.328-1.328 1.328a.736.736 0 00-.176.293.635.635 0 000 .312c.04.104.098.195.176.274a.577.577 0 00.195.156.8.8 0 00.488 0 .577.577 0 00.196-.156l1.328-1.31 1.328 1.31a.577.577 0 00.195.156.8.8 0 00.488 0 .577.577 0 00.196-.156c.3-.287.3-.58 0-.88l-1.328-1.328 1.328-1.328a.556.556 0 00.195-.43zm3.223-5.117h3.75c.17 0 .313-.06.43-.176a.556.556 0 00.195-.43.577.577 0 00-.195-.45.556.556 0 00-.43-.194h-3.75a.617.617 0 00-.45.195.608.608 0 00-.175.449c0 .17.059.313.176.43.13.117.28.176.449.176zm0 6.25h3.75c.17 0 .313-.06.43-.176a.556.556 0 00.195-.43.577.577 0 00-.195-.45.556.556 0 00-.43-.194h-3.75a.617.617 0 00-.45.195.608.608 0 00-.175.449c0 .17.059.313.176.43.13.117.28.175.449.175zm0 2.5h3.75c.17 0 .313-.06.43-.176a.556.556 0 00.195-.43.577.577 0 00-.195-.45.556.556 0 00-.43-.194h-3.75a.617.617 0 00-.45.195.608.608 0 00-.175.449c0 .17.059.313.176.43.13.117.28.175.449.175z" fill="#C78E66"/></svg><svg fill="none" viewBox="0 0 20 21" id="benefits-05" xmlns="http://www.w3.org/2000/svg"><path d="M19.915 16.844l-3.642-6.758c.39-.885.585-1.81.585-2.774 0-1.25-.312-2.402-.935-3.457a6.763 6.763 0 00-2.493-2.5 6.697 6.697 0 00-3.428-.917c-.753 0-1.48.117-2.181.351a6.452 6.452 0 00-1.87.996A7.52 7.52 0 004.47 3.25a6.426 6.426 0 00-.994 1.895 7.196 7.196 0 00-.33 2.168c0 .338.019.67.058.996.052.325.123.638.214.937.09.3.201.6.331.899L.09 16.843a.6.6 0 00.038.683c.17.209.384.28.643.215l3.136-.703 1.071 2.988c.09.248.273.384.545.41h.04c.246 0 .428-.11.545-.332L9.3 14.148c.233.027.467.04.7.04h.196c.078-.014.149-.02.214-.02.078 0 .156-.006.234-.02l3.252 5.957a.578.578 0 00.546.332H14.5a.585.585 0 00.526-.41l1.071-2.988 3.136.703a.54.54 0 00.35 0 .65.65 0 00.273-.215c.169-.221.188-.449.058-.683zM5.678 18.269L4.9 16.082a.62.62 0 00-.175-.234.577.577 0 00-.273-.157.556.556 0 00-.292 0l-2.318.528 2.65-4.825c.908 1.224 2.083 2.058 3.524 2.5L5.678 18.27zM4.393 7.314c0-1.55.545-2.872 1.636-3.965 1.103-1.107 2.428-1.66 3.973-1.66 1.013 0 1.947.253 2.804.761A5.383 5.383 0 0114.832 4.5c.506.86.76 1.797.76 2.813 0 .507-.065 1.009-.195 1.503a5.524 5.524 0 01-1.441 2.48c-.351.34-.734.632-1.15.88a6.06 6.06 0 01-1.324.566c-.48.13-.974.195-1.48.195a5.505 5.505 0 01-2.824-.761 5.724 5.724 0 01-2.045-2.051 5.55 5.55 0 01-.74-2.813zm11.452 8.378a.6.6 0 00-.448.059.728.728 0 00-.292.332l-.78 2.207-2.395-4.375a7.003 7.003 0 002.006-.976 6.835 6.835 0 001.597-1.583l2.63 4.864-2.318-.528z" fill="#C78E66"/></svg><svg fill="none" viewBox="0 0 20 16" id="email" xmlns="http://www.w3.org/2000/svg"><path d="M19.98 2.141a.348.348 0 000-.227l-.039-.113c-.156-.682-.657-1.023-1.503-1.023H2.188c-.391 0-.769.07-1.133.208-.352.139-.619.328-.801.568l-.098.095a.526.526 0 00-.136.492.164.164 0 00-.02.076v10.884c0 .505.234.985.703 1.44.469.454.964.681 1.485.681h16.25c.481 0 .859-.214 1.132-.644a2.6 2.6 0 00.43-1.477V2.293v-.038-.057c0-.025-.006-.044-.02-.057zM2.188 1.99h16.25L10 8.524 1.582 2.009c.104-.013.306-.02.605-.02zm16.25 12.02H2.188c-.117 0-.253-.05-.41-.151a1.648 1.648 0 01-.37-.36c-.105-.152-.157-.284-.157-.398V3.316l8.34 6.458a.609.609 0 00.41.152.769.769 0 00.41-.152l8.34-6.458v9.861c0 .555-.104.833-.313.833z" fill="#C78E66"/></svg><svg fill="none" viewBox="0 0 12 24" id="facebook" xmlns="http://www.w3.org/2000/svg"><path fill-rule="evenodd" clip-rule="evenodd" d="M11.522 8.19l-.268 3.366H7.678V23.25H3.161V11.556H.75V8.191h2.41V5.929c0-.996.027-2.534.777-3.486C4.727 1.435 5.812.75 7.678.75c3.04 0 4.322.418 4.322.418l-.603 3.447s-1.005-.28-1.941-.28c-.938 0-1.778.322-1.778 1.228V8.19h3.844z" fill="#fff"/></svg><svg fill="none" viewBox="0 0 14 20" id="fuel" xmlns="http://www.w3.org/2000/svg"><path d="M6.96 20a6.938 6.938 0 01-3.5-.92 6.83 6.83 0 01-2.525-2.446A6.524 6.524 0 010 13.23c0-2.27 1.551-5.734 4.653-10.391A49.28 49.28 0 016.463.254.574.574 0 016.96 0c.212 0 .385.085.517.254.093.118.212.28.358.49.146.195.398.541.756 1.037.371.496.73 1.01 1.074 1.546.345.535.729 1.148 1.153 1.84a27.71 27.71 0 011.193 2.074c.358.691.69 1.39.995 2.094.318.691.563 1.376.736 2.054.172.679.258 1.292.258 1.84 0 .73-.12 1.442-.358 2.133a6.454 6.454 0 01-1.014 1.879 7.183 7.183 0 01-1.511 1.448 6.482 6.482 0 01-1.93.959A7.098 7.098 0 016.96 20zm.02-18.297a57.053 57.053 0 00-1.551 2.27 85.845 85.845 0 00-1.83 2.974 23.688 23.688 0 00-1.69 3.464c-.424 1.122-.636 2.061-.636 2.818 0 1.513.557 2.811 1.67 3.894 1.114 1.083 2.453 1.625 4.017 1.625 1.591 0 2.95-.542 4.077-1.625 1.127-1.083 1.69-2.38 1.69-3.894 0-.535-.106-1.155-.318-1.86a12.234 12.234 0 00-.855-2.19 34.273 34.273 0 00-1.133-2.193 31.232 31.232 0 00-1.313-2.152 35.76 35.76 0 00-1.193-1.781c-.318-.47-.63-.92-.935-1.35z" fill="#C78E66"/></svg><svg fill="none" viewBox="0 0 20 20" id="instagram" xmlns="http://www.w3.org/2000/svg"><path fill-rule="evenodd" clip-rule="evenodd" d="M16.86 17.722c-4.53-.02-9.06-.007-13.588-.01-.919 0-1.078-.162-1.082-1.126-.01-2.45.016-4.901-.024-7.35-.012-.767.241-1.06.998-.942.281.043.574.007.986.007-.477 2.678.163 4.944 2.369 6.584 1.203.893 2.6 1.3 4.088 1.124 3.236-.382 6.08-3.008 5.343-7.668h1.864c.017.267.047.52.047.771.004 2.529-.016 5.059.013 7.588.009.75-.26 1.025-1.014 1.022zM10.093 6.085c2.168.009 3.833 1.726 3.828 3.951-.004 2.147-1.789 3.905-3.934 3.877-2.07-.028-3.87-1.83-3.895-3.9-.026-2.137 1.807-3.936 4-3.928zm5.677-3.959h.079c2.102-.025 2.019-.065 1.998 2.033 0 1.959 0 1.959-1.992 1.96-2.013 0-2.013 0-2.013-2.042 0-1.949 0-1.949 1.928-1.95zM17.66.003c-2.5-.005-5 0-7.501-.001C7.633 0 5.105.003 2.579 0 1.008-.002.012.95.008 2.54a3146.2 3146.2 0 000 14.851c.002.985.359 1.843 1.29 2.266.505.229 1.113.314 1.676.32 3.316.028 6.632.012 9.95.013 1.42 0 2.842.02 4.263.002 1.761-.022 2.802-.912 2.804-2.405.01-5.082.01-10.165.002-15.247C19.993.978 19.01.006 17.66.003z" fill="#fff"/></svg><svg viewBox="0 0 14 18" id="location" xmlns="http://www.w3.org/2000/svg"><path d="M6.82 0c-.914 0-1.793.188-2.636.563A6.814 6.814 0 002.02 2.038 7.157 7.157 0 00.545 4.22 6.6 6.6 0 000 6.855c0 .516.07 1.055.21 1.618.142.562.306 1.084.493 1.564.188.48.457 1.014.809 1.6.351.586.662 1.084.931 1.494.282.398.657.89 1.125 1.476.47.575.832 1.014 1.09 1.319.258.304.621.726 1.09 1.265.14.165.246.282.316.352a.602.602 0 00.123.123c.06.059.165.129.317.211a.927.927 0 00.44.123h.052c.328 0 .621-.152.879-.457C11.625 13.23 13.5 9.668 13.5 6.855c0-1.957-.598-3.58-1.793-4.869C10.465.662 8.836 0 6.82 0zm.211 16.787a.199.199 0 01-.07.07l-.07-.07-.3-.334c-.445-.515-.79-.914-1.036-1.195a93.644 93.644 0 01-1.037-1.266 23.306 23.306 0 01-1.055-1.389c-.258-.386-.557-.85-.897-1.388a11.78 11.78 0 01-.79-1.477c-.176-.445-.329-.92-.458-1.424a6.026 6.026 0 01-.193-1.459c0-1.02.258-1.968.773-2.847a5.776 5.776 0 012.075-2.11 5.53 5.53 0 012.847-.773c.926 0 1.752.164 2.479.492.726.317 1.306.75 1.74 1.301.445.55.78 1.16 1.002 1.828.223.668.334 1.371.334 2.11 0 2.53-1.781 5.841-5.344 9.931zM6.768 3.393c-.364 0-.721.058-1.073.175A3.5 3.5 0 003.55 5.713c-.105.34-.157.691-.157 1.055 0 .937.328 1.734.984 2.39.668.656 1.465.985 2.39.985.938 0 1.735-.329 2.391-.985.656-.656.985-1.453.985-2.39 0-.457-.088-.891-.264-1.301a3.143 3.143 0 00-.72-1.072 3.337 3.337 0 00-1.09-.721 3.092 3.092 0 00-1.301-.281zm0 5.625a2.182 2.182 0 01-1.6-.668 2.182 2.182 0 01-.668-1.6c0-.621.217-1.148.65-1.582a2.182 2.182 0 011.6-.668c.621 0 1.148.223 1.582.668.445.434.668.96.668 1.582 0 .773-.31 1.389-.932 1.846-.386.281-.82.422-1.3.422z"/></svg><svg viewBox="0 0 18 18" id="login" xmlns="http://www.w3.org/2000/svg"><path d="M9.009 1.126c.457 0 .926.094 1.407.282.493.176.921.404 1.285.686.364.27.663.575.897.915.235.328.352.64.352.932v2.816c0 .668-.14 1.413-.422 2.234s-.698 1.443-1.25 1.865a1.242 1.242 0 00-.246.3c-.07.105-.123.222-.158.351-.024.118-.03.24-.018.37.059.422.276.721.651.897l4.91 2.323.035.017c.023 0 .046.006.07.018.024.012.053.03.088.053a.312.312 0 01.088.088.266.266 0 01.088.105.397.397 0 01.07.176c.012.07.018.147.018.229v1.09l-15.748.018v-1.143c0-.293.158-.51.475-.651l4.944-2.34c.376-.176.587-.47.634-.88.059-.423-.076-.763-.405-1.02-.54-.435-.962-1.062-1.267-1.883-.293-.833-.44-1.572-.44-2.217V3.94c0-.387.194-.797.581-1.231.387-.446.892-.821 1.513-1.126.622-.305 1.238-.458 1.848-.458zm0-1.126c-.81 0-1.613.2-2.41.598-.787.387-1.426.892-1.919 1.513-.492.61-.739 1.22-.739 1.83v2.816c0 .762.176 1.642.528 2.639.364.985.898 1.765 1.601 2.34l-4.944 2.34a.985.985 0 00-.123.053 3.717 3.717 0 00-.264.158 4.57 4.57 0 00-.352.247 1.455 1.455 0 00-.264.316.59.59 0 00-.123.335v1.707c0 .305.106.563.317.774.223.223.492.334.81.334H16.89c.306 0 .564-.111.775-.334.223-.212.334-.47.334-.774v-1.707a.61.61 0 00-.123-.352.915.915 0 00-.282-.317 2.906 2.906 0 00-.316-.246c-.106-.07-.2-.123-.282-.159l-.105-.035-4.91-2.34c.704-.551 1.226-1.314 1.566-2.287.352-.974.528-1.871.528-2.692V3.94c0-.457-.152-.92-.457-1.39a4.928 4.928 0 00-1.144-1.284A5.972 5.972 0 0010.84.352 5.161 5.161 0 009.009 0z"/></svg><svg fill="none" viewBox="0 0 20 20" id="phone" xmlns="http://www.w3.org/2000/svg"><path d="M19.491 15.068c-.052-.052-.214-.169-.487-.35-.272-.183-.59-.39-.954-.624a52.55 52.55 0 00-1.09-.722 40.162 40.162 0 00-.974-.643 6.817 6.817 0 00-.545-.35.681.681 0 00-.194-.098 1.031 1.031 0 00-.215-.059 1.092 1.092 0 00-.214-.02.43.43 0 00-.136.02.57.57 0 00-.136.02.57.57 0 00-.137.02l-.155.038a1.069 1.069 0 00-.137.059 1.069 1.069 0 00-.136.058.433.433 0 00-.136.059c-.247.13-.838.461-1.772.994-.792-.559-1.778-1.43-2.96-2.612-1.168-1.17-2.031-2.151-2.59-2.944.533-.948.864-1.54.994-1.774.337-.65.37-1.189.097-1.618-.143-.22-.603-.916-1.382-2.085C5.466 1.267 5.03.61 4.927.467 4.707.157 4.37 0 3.915 0a1.61 1.61 0 00-.35.039 2.035 2.035 0 00-.332.117 1.744 1.744 0 00-.311.156c-.065.052-.175.136-.331.253-.143.117-.383.319-.72.605-.325.272-.617.545-.877.818-.26.26-.493.553-.7.877-.208.312-.306.585-.293.82.013.545.11 1.123.292 1.734.182.598.429 1.196.74 1.793.312.598.656 1.19 1.032 1.774.39.585.824 1.17 1.305 1.755.48.585.94 1.124 1.382 1.618.441.48.909.968 1.402 1.462a43.338 43.338 0 002.297 2.144c.766.65 1.597 1.293 2.493 1.93a14.675 14.675 0 002.745 1.5c.934.378 1.81.579 2.628.605h.02c.22 0 .487-.104.798-.312.312-.208.597-.448.857-.721.273-.26.545-.546.818-.858.285-.325.487-.565.603-.721l.234-.312c.402-.572.46-1.118.175-1.637a1.15 1.15 0 00-.33-.37zm-.857 1.267c-.389.546-.824 1.066-1.304 1.56-.48.48-.83.767-1.051.857-1.169-.064-2.551-.59-4.148-1.578-1.583-1.001-3.284-2.411-5.101-4.23-1.804-1.82-3.206-3.522-4.206-5.108-1-1.598-1.525-2.976-1.577-4.132.078-.221.357-.572.837-1.053.494-.48 1.013-.916 1.558-1.306a.305.305 0 01.078-.058.173.173 0 01.078-.02.367.367 0 01.117-.02c.013 0 .026.007.039.02.778 1.118 1.635 2.41 2.57 3.88 0 .103-.04.24-.117.409a1.731 1.731 0 00-.097.175c-.04.078-.091.169-.156.273-.052.104-.117.22-.195.35-.078.13-.162.274-.253.43-.078.156-.169.325-.273.506l-.389.683.448.643c.61.87 1.525 1.917 2.745 3.138 1.22 1.222 2.259 2.132 3.115 2.73l.643.467.701-.39c.376-.22.727-.422 1.051-.604.325-.195.552-.318.682-.37a.743.743 0 01.39-.137h.019c1.051.663 2.35 1.527 3.894 2.593.013.09-.02.188-.098.292z" fill="#C78E66"/></svg><svg viewBox="0 0 18 18" id="phone-white" xmlns="http://www.w3.org/2000/svg"><path d="M17.542 13.561a4.133 4.133 0 00-.438-.315c-.245-.164-.532-.351-.859-.562a47.286 47.286 0 00-.981-.649 36.14 36.14 0 00-.876-.579 6.104 6.104 0 00-.49-.316.614.614 0 00-.176-.087.927.927 0 00-.193-.053.984.984 0 00-.193-.018.387.387 0 00-.122.018.514.514 0 00-.123.018.516.516 0 00-.123.017l-.14.035a.96.96 0 00-.122.053.955.955 0 00-.123.052.389.389 0 00-.123.053c-.222.117-.753.415-1.594.895-.713-.503-1.6-1.287-2.664-2.351-1.051-1.053-1.828-1.936-2.33-2.65l.893-1.596c.304-.584.333-1.07.088-1.456a273.42 273.42 0 00-1.244-1.877A93.441 93.441 0 004.434.421C4.236.141 3.932 0 3.524 0c-.106 0-.211.012-.316.035A1.832 1.832 0 002.91.14a1.57 1.57 0 00-.28.14 13.73 13.73 0 01-.298.229c-.129.105-.345.286-.649.544a9.737 9.737 0 00-.788.736 4.675 4.675 0 00-.631.79c-.187.28-.275.526-.263.737.012.491.1 1.011.263 1.561.163.538.385 1.076.666 1.614.28.538.59 1.07.929 1.597.35.526.741 1.052 1.174 1.579.432.526.847 1.011 1.244 1.456.397.433.818.871 1.261 1.316a38.97 38.97 0 002.068 1.93 33.21 33.21 0 002.243 1.736 13.2 13.2 0 002.471 1.351c.841.34 1.63.52 2.366.544h.017c.199 0 .438-.094.719-.28a4.54 4.54 0 00.77-.65c.246-.234.491-.491.737-.772.257-.292.438-.508.543-.649l.21-.28c.362-.515.415-1.006.158-1.474a1.036 1.036 0 00-.298-.334zm-.771 1.14c-.35.492-.742.96-1.174 1.404-.432.433-.748.69-.946.772-1.052-.058-2.296-.532-3.733-1.42-1.425-.901-2.955-2.17-4.591-3.808-1.624-1.637-2.886-3.17-3.785-4.596-.9-1.439-1.373-2.679-1.42-3.72.07-.199.322-.514.754-.947.444-.433.911-.825 1.402-1.175a.275.275 0 01.07-.053.155.155 0 01.07-.018.33.33 0 01.105-.017c.012 0 .024.006.035.017.701 1.006 1.472 2.17 2.313 3.492A.942.942 0 015.766 5a1.561 1.561 0 00-.087.158c-.035.07-.082.152-.14.246a4.77 4.77 0 01-.176.315l-.228.386c-.07.14-.151.293-.245.456l-.35.614.403.58c.549.783 1.372 1.725 2.47 2.824 1.099 1.1 2.033 1.918 2.804 2.456l.579.421.63-.35c.34-.2.655-.38.947-.545.292-.175.496-.286.613-.333a.667.667 0 01.35-.123h.018c.946.597 2.115 1.374 3.505 2.334.011.082-.018.17-.088.263z"/></svg><svg fill="none" viewBox="0 0 14 20" id="power" xmlns="http://www.w3.org/2000/svg"><path d="M8.347 1.252L6.962 8.67l5.04.02-6.849 10.059 1.385-8.16-5.04-.02 6.849-9.316zm0-1.252H8.25a.818.818 0 00-.269.078 1.3 1.3 0 00-.27.137C7.623.28 7.54.36 7.462.45l-.038.04c0 .012-.006.025-.019.038L.498 9.804c-.295.418-.327.855-.096 1.312.038.078.083.156.135.234l.192.196c.077.052.154.098.23.137.09.04.18.072.27.098.09.013.18.02.27.02l3.558.019-1.135 6.712c-.051.287-.006.555.135.803.141.26.34.45.596.567.077.04.154.065.231.078.09.014.18.02.27.02.371 0 .685-.17.942-.509l6.906-10.059c.295-.417.327-.854.096-1.31-.23-.457-.596-.686-1.097-.686H8.444l1.116-5.89a.584.584 0 00.019-.137.654.654 0 00.019-.157.954.954 0 00-.058-.332 1.163 1.163 0 00-.308-.548.844.844 0 00-.23-.196A1.12 1.12 0 008.712.06.858.858 0 008.404 0h-.038-.02z" fill="#C78E66"/></svg><svg fill="none" viewBox="0 0 20 19" id="racing" xmlns="http://www.w3.org/2000/svg"><path d="M13.875.818A9.43 9.43 0 0010 0a9.564 9.564 0 00-3.894.818 9.981 9.981 0 00-3.19 2.176c-.887.904-1.598 1.989-2.133 3.253A10.307 10.307 0 000 10.219c0 1.756.411 3.399 1.233 4.93a10.076 10.076 0 003.464 3.711c.143.093.3.12.47.08.169-.04.3-.133.39-.28a.615.615 0 00.079-.478.62.62 0 00-.274-.4 8.884 8.884 0 01-2.622-2.574l.665-.4a.55.55 0 00.274-.378.56.56 0 00-.059-.48.533.533 0 00-.371-.299.53.53 0 00-.47.06l-.665.38a9.43 9.43 0 01-.568-1.577 8.986 8.986 0 01-.274-1.677h.685c.183 0 .333-.06.45-.18a.674.674 0 00.176-.459.603.603 0 00-.176-.439.573.573 0 00-.45-.2h-.685a8.752 8.752 0 01.88-3.292l.627.379a.61.61 0 00.313.08.568.568 0 00.528-.32.56.56 0 00.06-.478.55.55 0 00-.275-.38L2.78 5.17a8.947 8.947 0 012.348-2.375l.352.619c.118.213.3.32.548.32a.684.684 0 00.314-.08.666.666 0 00.176-.16.636.636 0 00.097-.22.5.5 0 00.02-.24.465.465 0 00-.078-.259l-.352-.619a8.106 8.106 0 011.526-.558 9.695 9.695 0 011.624-.3v.799c0 .186.059.339.176.459.13.12.28.18.45.18.183 0 .333-.06.45-.18a.628.628 0 00.177-.46v-.798a8.534 8.534 0 013.229.878l-.353.6-.039.119a.784.784 0 00-.039.1v.22l.04.119c.012.027.025.06.038.1a.313.313 0 01.06.08l.077.08a.244.244 0 00.098.06l.079.04.078.04h.156a.632.632 0 00.157-.02.431.431 0 00.137-.06.523.523 0 00.137-.1.394.394 0 00.117-.14l.333-.599A9.074 9.074 0 0117.24 5.19l-.587.36a.58.58 0 00-.196.159c-.04.067-.072.14-.098.22a.571.571 0 00-.02.259.68.68 0 00.313.459c.105.053.21.08.314.08a.632.632 0 00.156-.02.753.753 0 00.157-.06l.587-.34a8.807 8.807 0 01.861 3.274h-.685c-.17 0-.32.066-.45.2a.603.603 0 00-.176.439c0 .173.058.325.176.459.13.12.28.18.45.18h.685a9.047 9.047 0 01-.822 3.212l-.626-.359a.579.579 0 00-.49-.06.59.59 0 00-.371.3.645.645 0 00-.079.24.501.501 0 00.02.239c.026.08.059.153.098.22a.58.58 0 00.196.159l.626.379a8.888 8.888 0 01-2.7 2.635.62.62 0 00-.275.399c-.039.16-.013.319.079.479.039.053.084.1.136.14.066.053.131.092.196.12.066.026.13.039.196.039a.609.609 0 00.333-.1 9.867 9.867 0 003.483-3.692A10.237 10.237 0 0020 10.198c0-1.37-.267-2.687-.802-3.951-.522-1.264-1.233-2.349-2.133-3.253a9.702 9.702 0 00-3.19-2.176zm.743 7.405a.68.68 0 00.235-.24.72.72 0 00.079-.32.72.72 0 00-.079-.318.608.608 0 00-.391-.28.583.583 0 00-.47.04l-3.405 2.016a1.147 1.147 0 00-.607-.18c-.339 0-.632.127-.88.38a1.24 1.24 0 00-.372.898c0 .226.052.439.157.638.117.2.274.36.47.48.195.106.404.159.625.159.34 0 .633-.127.881-.38a1.24 1.24 0 00.372-.897l3.385-1.996z" fill="#C78E66"/></svg><svg viewBox="0 0 512.005 512.005" id="search" xmlns="http://www.w3.org/2000/svg"><path d="M505.749 475.587l-145.6-145.6c28.203-34.837 45.184-79.104 45.184-127.317C405.333 90.926 314.41.003 202.666.003S0 90.925 0 202.669s90.923 202.667 202.667 202.667c48.213 0 92.48-16.981 127.317-45.184l145.6 145.6c4.16 4.16 9.621 6.251 15.083 6.251s10.923-2.091 15.083-6.251c8.341-8.341 8.341-21.824-.001-30.165zM202.667 362.669c-88.235 0-160-71.765-160-160s71.765-160 160-160 160 71.765 160 160-71.766 160-160 160z" fill="#FFF"/></svg><svg fill="none" viewBox="0 0 21 20" id="torque" xmlns="http://www.w3.org/2000/svg"><path d="M19 8.105l-1.602-.351a7.657 7.657 0 00-.468-1.152l.86-1.446c.116-.182.2-.37.253-.566.065-.208.078-.423.039-.645a1.036 1.036 0 00-.293-.566L16.91 2.5a1.022 1.022 0 00-.43-.254 1.044 1.044 0 00-.488-.078c-.156 0-.312.026-.469.078a2.16 2.16 0 00-.43.195l-1.405.899-.157-.078-.156-.078a.765.765 0 00-.156-.059 2.333 2.333 0 00-.176-.078.763.763 0 00-.156-.059.698.698 0 00-.176-.058.76.76 0 00-.156-.059l-.352-1.64a1.65 1.65 0 00-.469-.84C11.487.13 11.2 0 10.875 0h-1.25c-.326 0-.599.124-.82.371a2.06 2.06 0 00-.43.879l-.41 1.602a6.096 6.096 0 00-.625.234c-.195.078-.39.17-.586.273l-1.445-.918a1.461 1.461 0 00-.586-.234 1.349 1.349 0 00-.645 0c-.221.04-.41.137-.566.293l-.899.879c-.221.286-.325.58-.312.879.026.3.13.599.312.898l.918 1.524a7.686 7.686 0 00-.43 1.074L1.5 8.105a1.762 1.762 0 00-.879.47c-.247.234-.371.52-.371.859v1.25c0 .312.124.579.371.8.247.222.54.371.879.45l1.621.39c.104.326.241.658.41.996l-.918 1.524c-.182.3-.286.599-.312.898-.013.3.09.593.312.88l.899.878c.26.234.56.352.898.352.339-.014.638-.111.899-.293l1.445-.918.234.117.235.117c.09.026.175.059.254.098.09.026.175.058.253.097a6.3 6.3 0 01.254.078l.391 1.602c.078.338.228.631.45.879.22.247.488.371.8.371h1.25c.221 0 .43-.065.625-.195.195-.117.352-.274.469-.47a1.63 1.63 0 00.234-.585l.352-1.621c.39-.117.768-.274 1.133-.469l1.406.899c.273.182.58.28.918.293.338 0 .638-.118.898-.352l.88-.879c.22-.286.318-.58.292-.879-.013-.3-.11-.599-.293-.898l-.86-1.446c.183-.351.333-.71.45-1.074l1.621-.39c.338-.079.631-.228.879-.45.247-.221.371-.488.371-.8v-1.25c0-.508-.267-.899-.8-1.172a1.42 1.42 0 00-.45-.157zm0 2.48a.225.225 0 01-.059.04.772.772 0 01-.097.04l-.117.038-2.325.586-.215.645c-.052.156-.11.312-.175.468a3.135 3.135 0 01-.196.43l-.312.625 1.23 2.031a.938.938 0 01.118.313l-.82.82a1.842 1.842 0 01-.137-.039.573.573 0 01-.079-.059l-2.05-1.308-.645.332-.312.156c-.105.04-.209.085-.313.137a2.86 2.86 0 01-.312.098l-.684.234-.508 2.324a.762.762 0 01-.058.156.637.637 0 01-.079.098H9.723a.868.868 0 01-.118-.273l-.585-2.305-.665-.215-.117-.039a.743.743 0 00-.097-.04l-.118-.038-.117-.04a.49.49 0 00-.117-.058l-.117-.039a.498.498 0 00-.117-.058.759.759 0 00-.098-.04l-.117-.078-.645-.332-2.05 1.309a.446.446 0 01-.254.098l-.82-.801a.767.767 0 01.116-.293l1.27-2.13-.293-.605a7.053 7.053 0 01-.351-.82l-.215-.664-2.285-.586a.87.87 0 01-.313-.117V9.434c.013 0 .026-.007.04-.02l.077-.039a.19.19 0 01.098-.04l2.363-.526.215-.684c.078-.273.195-.573.352-.898l.312-.606-1.27-2.11-.078-.156A.45.45 0 013.57 4.2l.82-.82.215.098 2.09 1.328.645-.332c.325-.17.664-.313 1.015-.43l.665-.215.566-2.265a.692.692 0 01.137-.313h1.152l.02.059c.013.013.02.026.02.039.012.013.019.032.019.058a.225.225 0 00.039.059l.507 2.363.684.235c.326.104.645.234.957.39l.645.332 2.011-1.289a.518.518 0 01.254-.078l.82.8a.598.598 0 00-.038.118.44.44 0 01-.079.156l-1.23 2.051.312.625c.092.17.17.332.235.488.065.157.117.313.156.469l.215.684 2.324.527c.143.026.235.072.274.137L19 10.586zm-6.094-3.241c-.729-.73-1.614-1.094-2.656-1.094-1.029 0-1.914.365-2.656 1.094C6.864 8.073 6.5 8.958 6.5 10s.365 1.927 1.094 2.656c.742.73 1.627 1.094 2.656 1.094.52 0 1.01-.098 1.465-.293a3.707 3.707 0 001.21-.8c.34-.34.606-.736.802-1.192.195-.469.293-.957.293-1.465a3.585 3.585 0 00-1.114-2.656zm-.898 4.433a2.393 2.393 0 01-1.758.723c-.69 0-1.283-.24-1.777-.723A2.458 2.458 0 017.75 10c0-.69.24-1.276.723-1.758A2.425 2.425 0 0110.25 7.5c.69 0 1.276.247 1.758.742.495.482.742 1.068.742 1.758s-.247 1.283-.742 1.777z" fill="#C78E66"/></svg><svg fill="none" viewBox="0 0 18 10" id="vkontakte" xmlns="http://www.w3.org/2000/svg"><path fill-rule="evenodd" clip-rule="evenodd" d="M17.545 10h-2.31c-.753 0-.848-.521-2.23-1.773-1.166-1.092-1.665-1.178-1.947-1.178-.252 0-.425.18-.425.596v1.67c0 .492-.298.685-1.523.685-2.01 0-4.24-1.177-5.937-3.353C.644 3.413 0 .998 0 .477 0 .194.22 0 .519 0h2.057c.534 0 .738.15.927.685.942 2.624 2.623 4.934 3.33 4.934.266 0 .298-.209.298-.745V2.206c0-1.293-.77-1.4-.77-1.878 0-.19.158-.328.409-.328h3.298c.44 0 .503.15.503.656v3.621c0 .413.09.567.282.567.24 0 .461-.138.896-.596C13.101 2.83 14.215.58 14.215.58c.14-.283.314-.477.785-.477h2.057c.41 0 .582.21.504.581-.237 1.044-2.608 4.218-2.608 4.218-.22.328-.314.507 0 .82.22.268.911.85 1.335 1.386C17.324 8.152 18 9.03 18 9.524c0 .372-.22.476-.455.476z" fill="#fff"/></svg><svg fill="none" viewBox="0 0 20 20" id="whours" xmlns="http://www.w3.org/2000/svg"><path d="M15.02 1.348A9.768 9.768 0 0010 0C8.19 0 6.517.45 4.98 1.348A9.875 9.875 0 000 10c0 1.81.443 3.483 1.328 5.02a10.026 10.026 0 003.652 3.652C6.517 19.557 8.19 20 10 20a9.875 9.875 0 008.652-4.98A9.768 9.768 0 0020 10c0-1.81-.45-3.483-1.348-5.02a9.728 9.728 0 00-3.633-3.632zM10 18.769c-.95 0-1.875-.143-2.773-.43a8.316 8.316 0 01-2.403-1.269 10.042 10.042 0 01-1.894-1.894 8.598 8.598 0 01-1.25-2.403A9.075 9.075 0 011.25 10c0-1.185.228-2.318.684-3.398a8.924 8.924 0 011.875-2.793 8.659 8.659 0 012.793-1.856A8.452 8.452 0 0110 1.25c1.185 0 2.318.234 3.398.703a8.658 8.658 0 012.793 1.856 8.66 8.66 0 011.856 2.793A8.452 8.452 0 0118.75 10a8.452 8.452 0 01-.703 3.398 8.89 8.89 0 01-1.856 2.813 8.921 8.921 0 01-2.793 1.875A8.657 8.657 0 0110 18.77zm.625-9.023V3.75a.556.556 0 00-.195-.43.556.556 0 00-.43-.195.617.617 0 00-.45.195.584.584 0 00-.175.43V10c0 .182.065.332.195.45v.019l.02.02 3.105 3.085c.117.13.26.196.43.196a.609.609 0 00.45-.176.652.652 0 00.175-.45.608.608 0 00-.176-.449l-2.949-2.949z" fill="#C78E66"/></svg><svg fill="none" viewBox="0 0 24 16" id="youtube" xmlns="http://www.w3.org/2000/svg"><path fill-rule="evenodd" clip-rule="evenodd" d="M9.955 10.937V5.063L15.935 8l-5.98 2.938zm13.179-6.773c-.038-.885-.28-1.754-.922-2.468-.79-.877-1.892-.955-2.977-.995-2.413-.088-4.828-.127-7.8-.201-2.166.081-4.888.163-7.606.293-1.226.06-2.147.641-2.557 1.759A6.282 6.282 0 00.88 4.394C.793 6.339.732 8.287.755 10.234c.01.946.169 1.903.372 2.833.259 1.186 1.089 1.914 2.363 2.107.803.123 1.62.186 2.433.214 4.647.157 9.293.168 13.939-.087 1.585-.087 2.688-.845 3.05-2.297.193-.776.331-1.585.336-2.38a136.58 136.58 0 00-.114-6.46z" fill="#fff"/></svg></svg>