<svg width="20" height="19" viewBox="0 0 20 19" fill="none" xmlns="http://www.w3.org/2000/svg"><path d="M8.3 12.48c1.498 0 2.852-.26 4.063-.78 1.211-.535 2.162-1.29 2.852-2.266.703-.977 1.048-2.09 1.035-3.34a4.39 4.39 0 0 0-.176-1.23 4.658 4.658 0 0 0-.469-1.153 5.052 5.052 0 0 0-.742-1.035 6.452 6.452 0 0 0-.976-.899 7.118 7.118 0 0 0-1.192-.742 7.882 7.882 0 0 0-1.367-.547A9.29 9.29 0 0 0 9.805.137 9.732 9.732 0 0 0 8.165 0C6.68 0 5.312.273 4.062.82c-1.25.534-2.24 1.27-2.97 2.207C.366 3.965 0 4.987 0 6.094 0 7.2.273 8.255.82 9.258a5.416 5.416 0 0 0 2.364 2.285v.039c0 .573-.358 1.471-1.075 2.695h.02a.388.388 0 0 0-.04.176v.117a.76.76 0 0 1 .04.098l.039.078.078.078.078.04a.76.76 0 0 1 .098.038c.039.013.078.02.117.02h.059l.058-.02h.02c.364-.052.788-.188 1.27-.41.494-.234.943-.488 1.347-.762a15.8 15.8 0 0 0 1.074-.761c.313-.248.515-.43.606-.547l.254.039c.078.013.15.02.214.02h.86zm-1.835-1.347l-.8.664c-.105.13-.333.338-.685.625-.351.273-.69.508-1.015.703a9.06 9.06 0 0 0 .293-.918c.065-.273.104-.45.117-.527v-.137l.059-.762-.684-.351a4.285 4.285 0 0 1-1.875-1.817 5.425 5.425 0 0 1-.625-2.52c0-.885.306-1.698.918-2.44.625-.743 1.465-1.329 2.52-1.758 1.067-.43 2.226-.645 3.476-.645s2.396.215 3.438.645c1.054.43 1.881 1.015 2.48 1.757.612.743.918 1.556.918 2.442a4.43 4.43 0 0 1-.508 2.07 5.075 5.075 0 0 1-1.387 1.64c-.585.443-1.295.795-2.128 1.055-.82.26-1.7.391-2.637.391a7.378 7.378 0 0 1-1.192-.059l-.683-.058zm13.535 0c0-1.732-.768-3.047-2.305-3.945-.039.377-.143.826-.312 1.347.52.365.879.749 1.074 1.152.195.391.293.873.293 1.446 0 .338-.04.657-.117.957-.078.286-.202.56-.371.82-.17.248-.39.482-.664.703-.26.209-.573.41-.938.606l-.605.293c.039 1.067.09 1.738.156 2.011a9.265 9.265 0 0 1-.645-.507 5.368 5.368 0 0 1-.468-.45c-.118-.13-.222-.247-.313-.351a3.117 3.117 0 0 1-.176-.254l-.039-.078-.664.098a4.711 4.711 0 0 1-.351.039h-.606c-1.627 0-2.969-.41-4.023-1.23H7.148l-.02.019c.248.3.528.579.84.84a8.13 8.13 0 0 0 1.016.683 8.01 8.01 0 0 0 2.5.84c.47.065.957.098 1.465.098h.371c.274 0 .528-.014.762-.04.286.326.775.75 1.465 1.27.69.52 1.328.833 1.914.938h.117a.398.398 0 0 0 .41-.41.346.346 0 0 0-.039-.157 2.753 2.753 0 0 1-.215-.469 7.92 7.92 0 0 1-.215-.664 11.672 11.672 0 0 1-.175-.722 4.679 4.679 0 0 1-.059-.684v-.039c1.81-.938 2.715-2.324 2.715-4.16z" fill="#C78E66"/></svg>