<svg width="20" height="21" viewBox="0 0 20 21" fill="none" xmlns="http://www.w3.org/2000/svg"><path d="M19.915 16.844l-3.642-6.758c.39-.885.585-1.81.585-2.774 0-1.25-.312-2.402-.935-3.457a6.763 6.763 0 0 0-2.493-2.5 6.697 6.697 0 0 0-3.428-.917c-.753 0-1.48.117-2.181.351a6.452 6.452 0 0 0-1.87.996A7.52 7.52 0 0 0 4.47 3.25a6.426 6.426 0 0 0-.994 1.895 7.196 7.196 0 0 0-.33 2.168c0 .338.019.67.058.996.052.325.123.638.214.937.09.3.201.6.331.899L.09 16.843a.6.6 0 0 0 .038.683c.17.209.384.28.643.215l3.136-.703 1.071 2.988c.09.248.273.384.545.41h.04c.246 0 .428-.11.545-.332L9.3 14.148c.233.027.467.04.7.04h.196a1.21 1.21 0 0 1 .214-.02c.078 0 .156-.006.234-.02l3.252 5.957a.578.578 0 0 0 .546.332h.058a.585.585 0 0 0 .526-.41l1.071-2.988 3.136.703a.54.54 0 0 0 .35 0 .65.65 0 0 0 .273-.215c.169-.221.188-.449.058-.683zM5.678 18.269L4.9 16.082a.62.62 0 0 0-.175-.234.577.577 0 0 0-.273-.157.556.556 0 0 0-.292 0l-2.318.528 2.65-4.825c.908 1.224 2.083 2.058 3.524 2.5L5.678 18.27zM4.393 7.314c0-1.55.545-2.872 1.636-3.965 1.103-1.107 2.428-1.66 3.973-1.66 1.013 0 1.947.253 2.804.761a5.383 5.383 0 0 1 2.026 2.05c.506.86.76 1.797.76 2.813 0 .507-.065 1.009-.195 1.503a5.524 5.524 0 0 1-1.441 2.48 6.23 6.23 0 0 1-1.15.88 6.06 6.06 0 0 1-1.324.566 5.64 5.64 0 0 1-1.48.195 5.505 5.505 0 0 1-2.824-.761 5.724 5.724 0 0 1-2.045-2.051 5.55 5.55 0 0 1-.74-2.813zm11.452 8.378a.6.6 0 0 0-.448.059.728.728 0 0 0-.292.332l-.78 2.207-2.395-4.375a7.003 7.003 0 0 0 2.006-.976 6.835 6.835 0 0 0 1.597-1.583l2.63 4.864-2.318-.528z" fill="#C78E66"/></svg>