<svg width="14" height="18" viewBox="0 0 14 18" xmlns="http://www.w3.org/2000/svg"><path d="M6.82 0c-.914 0-1.793.188-2.636.563A6.814 6.814 0 0 0 2.02 2.038 7.157 7.157 0 0 0 .545 4.22 6.6 6.6 0 0 0 0 6.855c0 .516.07 1.055.21 1.618.142.562.306 1.084.493 1.564.188.48.457 1.014.809 1.6.351.586.662 1.084.931 1.494.282.398.657.89 1.125 1.476.47.575.832 1.014 1.09 1.319.258.304.621.726 1.09 1.265.14.165.246.282.316.352a.602.602 0 0 0 .123.123c.06.059.165.129.317.211a.927.927 0 0 0 .44.123h.052c.328 0 .621-.152.879-.457C11.625 13.23 13.5 9.668 13.5 6.855c0-1.957-.598-3.58-1.793-4.869C10.465.662 8.836 0 6.82 0zm.211 16.787a.199.199 0 0 1-.07.07l-.07-.07-.3-.334c-.445-.515-.79-.914-1.036-1.195a93.644 93.644 0 0 1-1.037-1.266 23.306 23.306 0 0 1-1.055-1.389 66.38 66.38 0 0 1-.897-1.388 11.78 11.78 0 0 1-.79-1.477c-.176-.445-.329-.92-.458-1.424a6.026 6.026 0 0 1-.193-1.459c0-1.02.258-1.968.773-2.847a5.776 5.776 0 0 1 2.075-2.11 5.53 5.53 0 0 1 2.847-.773c.926 0 1.752.164 2.479.492.726.317 1.306.75 1.74 1.301.445.55.78 1.16 1.002 1.828.223.668.334 1.371.334 2.11 0 2.53-1.781 5.841-5.344 9.931zM6.768 3.393c-.364 0-.721.058-1.073.175A3.5 3.5 0 0 0 3.55 5.713c-.105.34-.157.691-.157 1.055 0 .937.328 1.734.984 2.39.668.656 1.465.985 2.39.985.938 0 1.735-.329 2.391-.985.656-.656.985-1.453.985-2.39 0-.457-.088-.891-.264-1.301a3.143 3.143 0 0 0-.72-1.072 3.337 3.337 0 0 0-1.09-.721 3.092 3.092 0 0 0-1.301-.281zm0 5.625a2.182 2.182 0 0 1-1.6-.668 2.182 2.182 0 0 1-.668-1.6c0-.621.217-1.148.65-1.582a2.182 2.182 0 0 1 1.6-.668c.621 0 1.148.223 1.582.668.445.434.668.96.668 1.582 0 .773-.31 1.389-.932 1.846-.386.281-.82.422-1.3.422z"/></svg>