<svg width="18" height="18" viewBox="0 0 18 18" xmlns="http://www.w3.org/2000/svg"><path d="M17.542 13.561a4.133 4.133 0 0 0-.438-.315 62.834 62.834 0 0 0-.859-.562 47.286 47.286 0 0 0-.981-.649 36.14 36.14 0 0 0-.876-.579 6.104 6.104 0 0 0-.49-.316.614.614 0 0 0-.176-.087.927.927 0 0 0-.193-.053.984.984 0 0 0-.193-.018.387.387 0 0 0-.122.018.514.514 0 0 0-.123.018.516.516 0 0 0-.123.017l-.14.035a.96.96 0 0 0-.122.053.955.955 0 0 0-.123.052.389.389 0 0 0-.123.053c-.222.117-.753.415-1.594.895-.713-.503-1.6-1.287-2.664-2.351-1.051-1.053-1.828-1.936-2.33-2.65l.893-1.596c.304-.584.333-1.07.088-1.456a273.42 273.42 0 0 0-1.244-1.877A93.441 93.441 0 0 0 4.434.421C4.236.141 3.932 0 3.524 0c-.106 0-.211.012-.316.035A1.832 1.832 0 0 0 2.91.14a1.57 1.57 0 0 0-.28.14 13.73 13.73 0 0 1-.298.229c-.129.105-.345.286-.649.544a9.737 9.737 0 0 0-.788.736 4.675 4.675 0 0 0-.631.79c-.187.28-.275.526-.263.737.012.491.1 1.011.263 1.561.163.538.385 1.076.666 1.614.28.538.59 1.07.929 1.597.35.526.741 1.052 1.174 1.579a46.96 46.96 0 0 0 1.244 1.456c.397.433.818.871 1.261 1.316a38.97 38.97 0 0 0 2.068 1.93 33.21 33.21 0 0 0 2.243 1.736 13.2 13.2 0 0 0 2.471 1.351c.841.34 1.63.52 2.366.544h.017c.199 0 .438-.094.719-.28a4.54 4.54 0 0 0 .77-.65 11.7 11.7 0 0 0 .737-.772c.257-.292.438-.508.543-.649l.21-.28c.362-.515.415-1.006.158-1.474a1.036 1.036 0 0 0-.298-.334zm-.771 1.14c-.35.492-.742.96-1.174 1.404-.432.433-.748.69-.946.772-1.052-.058-2.296-.532-3.733-1.42-1.425-.901-2.955-2.17-4.591-3.808-1.624-1.637-2.886-3.17-3.785-4.596-.9-1.439-1.373-2.679-1.42-3.72.07-.199.322-.514.754-.947.444-.433.911-.825 1.402-1.175a.275.275 0 0 1 .07-.053.155.155 0 0 1 .07-.018.33.33 0 0 1 .105-.017c.012 0 .024.006.035.017a100.84 100.84 0 0 1 2.313 3.492.942.942 0 0 1-.105.368 1.561 1.561 0 0 0-.087.158c-.035.07-.082.152-.14.246a4.77 4.77 0 0 1-.176.315l-.228.386c-.07.14-.151.293-.245.456l-.35.614.403.58c.549.783 1.372 1.725 2.47 2.824 1.099 1.1 2.033 1.918 2.804 2.456l.579.421.63-.35c.34-.2.655-.38.947-.545.292-.175.496-.286.613-.333a.667.667 0 0 1 .35-.123h.018c.946.597 2.115 1.374 3.505 2.334.011.082-.018.17-.088.263z"/></svg>