<svg width="20" height="20" viewBox="0 0 20 20" fill="none" xmlns="http://www.w3.org/2000/svg"><path d="M19.491 15.068c-.052-.052-.214-.169-.487-.35a56.14 56.14 0 0 0-.954-.624 52.55 52.55 0 0 0-1.09-.722 40.162 40.162 0 0 0-.974-.643 6.817 6.817 0 0 0-.545-.35.681.681 0 0 0-.194-.098 1.031 1.031 0 0 0-.215-.059 1.092 1.092 0 0 0-.214-.02.43.43 0 0 0-.136.02.57.57 0 0 0-.136.02.57.57 0 0 0-.137.02l-.155.038a1.069 1.069 0 0 0-.137.059 1.069 1.069 0 0 0-.136.058.433.433 0 0 0-.136.059c-.247.13-.838.461-1.772.994-.792-.559-1.778-1.43-2.96-2.612-1.168-1.17-2.031-2.151-2.59-2.944.533-.948.864-1.54.994-1.774.337-.65.37-1.189.097-1.618-.143-.22-.603-.916-1.382-2.085A109.494 109.494 0 0 0 4.927.467C4.707.157 4.37 0 3.915 0a1.61 1.61 0 0 0-.35.039 2.035 2.035 0 0 0-.332.117 1.744 1.744 0 0 0-.311.156c-.065.052-.175.136-.331.253a61.62 61.62 0 0 0-.72.605c-.325.272-.617.545-.877.818-.26.26-.493.553-.7.877-.208.312-.306.585-.293.82.013.545.11 1.123.292 1.734.182.598.429 1.196.74 1.793.312.598.656 1.19 1.032 1.774.39.585.824 1.17 1.305 1.755.48.585.94 1.124 1.382 1.618.441.48.909.968 1.402 1.462a43.338 43.338 0 0 0 2.297 2.144 36.87 36.87 0 0 0 2.493 1.93 14.675 14.675 0 0 0 2.745 1.5c.934.378 1.81.579 2.628.605h.02c.22 0 .487-.104.798-.312a5.04 5.04 0 0 0 .857-.721c.273-.26.545-.546.818-.858.285-.325.487-.565.603-.721l.234-.312c.402-.572.46-1.118.175-1.637a1.15 1.15 0 0 0-.33-.37zm-.857 1.267a13.375 13.375 0 0 1-1.304 1.56c-.48.48-.83.767-1.051.857-1.169-.064-2.551-.59-4.148-1.578-1.583-1.001-3.284-2.411-5.101-4.23-1.804-1.82-3.206-3.522-4.206-5.108-1-1.598-1.525-2.976-1.577-4.132.078-.221.357-.572.837-1.053a13.56 13.56 0 0 1 1.558-1.306.305.305 0 0 1 .078-.058.173.173 0 0 1 .078-.02.367.367 0 0 1 .117-.02c.013 0 .026.007.039.02a113.3 113.3 0 0 1 2.57 3.88c0 .103-.04.24-.117.409a1.731 1.731 0 0 0-.097.175c-.04.078-.091.169-.156.273-.052.104-.117.22-.195.35-.078.13-.162.274-.253.43a9.989 9.989 0 0 1-.273.506l-.389.683.448.643c.61.87 1.525 1.917 2.745 3.138 1.22 1.222 2.259 2.132 3.115 2.73l.643.467.701-.39c.376-.22.727-.422 1.051-.604.325-.195.552-.318.682-.37a.743.743 0 0 1 .39-.137h.019c1.051.663 2.35 1.527 3.894 2.593.013.09-.02.188-.098.292z" fill="#C78E66"/></svg>