<svg width="18" height="10" viewBox="0 0 18 10" fill="none" xmlns="http://www.w3.org/2000/svg"><path fill-rule="evenodd" clip-rule="evenodd" d="M17.545 10h-2.31c-.753 0-.848-.521-2.23-1.773-1.166-1.092-1.665-1.178-1.947-1.178-.252 0-.425.18-.425.596v1.67c0 .492-.298.685-1.523.685-2.01 0-4.24-1.177-5.937-3.353C.644 3.413 0 .998 0 .477 0 .194.22 0 .519 0h2.057c.534 0 .738.15.927.685.942 2.624 2.623 4.934 3.33 4.934.266 0 .298-.209.298-.745V2.206c0-1.293-.77-1.4-.77-1.878 0-.19.158-.328.409-.328h3.298c.44 0 .503.15.503.656v3.621c0 .413.09.567.282.567.24 0 .461-.138.896-.596C13.101 2.83 14.215.58 14.215.58c.14-.283.314-.477.785-.477h2.057c.41 0 .582.21.504.581-.237 1.044-2.608 4.218-2.608 4.218-.22.328-.314.507 0 .82.22.268.911.85 1.335 1.386C17.324 8.152 18 9.03 18 9.524c0 .372-.22.476-.455.476z" fill="#fff"/></svg>