<svg width="20" height="20" viewBox="0 0 20 20" fill="none" xmlns="http://www.w3.org/2000/svg"><path d="M15.02 1.348A9.768 9.768 0 0 0 10 0C8.19 0 6.517.45 4.98 1.348A9.875 9.875 0 0 0 0 10c0 1.81.443 3.483 1.328 5.02a10.026 10.026 0 0 0 3.652 3.652A9.886 9.886 0 0 0 10 20a9.875 9.875 0 0 0 8.652-4.98A9.768 9.768 0 0 0 20 10c0-1.81-.45-3.483-1.348-5.02a9.728 9.728 0 0 0-3.633-3.632zM10 18.769c-.95 0-1.875-.143-2.773-.43a8.316 8.316 0 0 1-2.403-1.269 10.042 10.042 0 0 1-1.894-1.894 8.598 8.598 0 0 1-1.25-2.403A9.075 9.075 0 0 1 1.25 10a8.65 8.65 0 0 1 .684-3.398 8.924 8.924 0 0 1 1.875-2.793 8.659 8.659 0 0 1 2.793-1.856A8.452 8.452 0 0 1 10 1.25c1.185 0 2.318.234 3.398.703a8.658 8.658 0 0 1 2.793 1.856 8.66 8.66 0 0 1 1.856 2.793A8.452 8.452 0 0 1 18.75 10a8.452 8.452 0 0 1-.703 3.398 8.89 8.89 0 0 1-1.856 2.813 8.921 8.921 0 0 1-2.793 1.875A8.657 8.657 0 0 1 10 18.77zm.625-9.023V3.75a.556.556 0 0 0-.195-.43.556.556 0 0 0-.43-.195.617.617 0 0 0-.45.195.584.584 0 0 0-.175.43V10c0 .182.065.332.195.45v.019l.02.02 3.105 3.085c.117.13.26.196.43.196a.609.609 0 0 0 .45-.176.652.652 0 0 0 .175-.45.608.608 0 0 0-.176-.449l-2.949-2.949z" fill="#C78E66"/></svg>