<svg width="24" height="16" viewBox="0 0 24 16" fill="none" xmlns="http://www.w3.org/2000/svg"><path fill-rule="evenodd" clip-rule="evenodd" d="M9.955 10.937V5.063L15.935 8l-5.98 2.938zm13.179-6.773c-.038-.885-.28-1.754-.922-2.468-.79-.877-1.892-.955-2.977-.995-2.413-.088-4.828-.127-7.8-.201-2.166.081-4.888.163-7.606.293-1.226.06-2.147.641-2.557 1.759A6.282 6.282 0 0 0 .88 4.394C.793 6.339.732 8.287.755 10.234c.01.946.169 1.903.372 2.833.259 1.186 1.089 1.914 2.363 2.107.803.123 1.62.186 2.433.214 4.647.157 9.293.168 13.939-.087 1.585-.087 2.688-.845 3.05-2.297.193-.776.331-1.585.336-2.38a136.58 136.58 0 0 0-.114-6.46z" fill="#fff"/></svg>